<mxfile host="app.diagrams.net" modified="2021-11-08T15:57:33.314Z" agent="5.0 (Macintosh; Intel Mac OS X 10_15_7) AppleWebKit/537.36 (KHTML, like Gecko) Chrome/95.0.4638.69 Safari/537.36" etag="dgIdZRG2vMSAUrmFH_HX" version="15.7.0" type="github">
  <diagram id="prtHgNgQTEPvFCAcTncT" name="Page-1">
    <mxGraphModel dx="2178" dy="1965" grid="1" gridSize="10" guides="1" tooltips="1" connect="1" arrows="1" fold="1" page="1" pageScale="1" pageWidth="827" pageHeight="1169" math="0" shadow="0">
      <root>
        <mxCell id="0" />
        <mxCell id="1" parent="0" />
        <mxCell id="M1y-c-umGduQYgalox2f-2" value="&lt;font style=&quot;font-size: 20px&quot;&gt;PC&lt;/font&gt;" style="rounded=0;whiteSpace=wrap;html=1;" parent="1" vertex="1">
          <mxGeometry x="-260" y="182" width="50" height="160" as="geometry" />
        </mxCell>
        <mxCell id="M1y-c-umGduQYgalox2f-3" value="" style="endArrow=classic;html=1;rounded=0;" parent="1" edge="1">
          <mxGeometry width="50" height="50" relative="1" as="geometry">
            <mxPoint x="-210" y="260" as="sourcePoint" />
            <mxPoint x="-80" y="260" as="targetPoint" />
          </mxGeometry>
        </mxCell>
        <mxCell id="M1y-c-umGduQYgalox2f-4" value="&lt;font style=&quot;font-size: 20px&quot;&gt;IM&lt;/font&gt;" style="whiteSpace=wrap;html=1;" parent="1" vertex="1">
          <mxGeometry x="-80" y="210" width="120" height="110" as="geometry" />
        </mxCell>
        <mxCell id="M1y-c-umGduQYgalox2f-5" value="&lt;font style=&quot;font-size: 20px&quot;&gt;PC[31:0]&lt;/font&gt;" style="text;html=1;align=center;verticalAlign=middle;resizable=0;points=[];autosize=1;strokeColor=none;fillColor=none;" parent="1" vertex="1">
          <mxGeometry x="-170" y="230" width="90" height="20" as="geometry" />
        </mxCell>
        <mxCell id="M1y-c-umGduQYgalox2f-6" value="" style="endArrow=classic;html=1;rounded=0;" parent="1" edge="1">
          <mxGeometry width="50" height="50" relative="1" as="geometry">
            <mxPoint x="40" y="260" as="sourcePoint" />
            <mxPoint x="170" y="260" as="targetPoint" />
          </mxGeometry>
        </mxCell>
        <mxCell id="M1y-c-umGduQYgalox2f-7" value="" style="endArrow=classic;html=1;rounded=0;" parent="1" edge="1">
          <mxGeometry width="50" height="50" relative="1" as="geometry">
            <mxPoint x="40" y="300.00000000000006" as="sourcePoint" />
            <mxPoint x="170" y="300.00000000000006" as="targetPoint" />
          </mxGeometry>
        </mxCell>
        <mxCell id="M1y-c-umGduQYgalox2f-8" value="&lt;span style=&quot;font-size: 20px&quot;&gt;PC[31:0]&lt;/span&gt;" style="text;html=1;align=center;verticalAlign=middle;resizable=0;points=[];autosize=1;strokeColor=none;fillColor=none;" parent="1" vertex="1">
          <mxGeometry x="55" y="230" width="90" height="20" as="geometry" />
        </mxCell>
        <mxCell id="M1y-c-umGduQYgalox2f-9" value="&lt;font style=&quot;font-size: 20px&quot;&gt;instr[31:0]&lt;/font&gt;" style="text;html=1;align=center;verticalAlign=middle;resizable=0;points=[];autosize=1;strokeColor=none;fillColor=none;" parent="1" vertex="1">
          <mxGeometry x="55" y="280" width="100" height="20" as="geometry" />
        </mxCell>
        <mxCell id="M1y-c-umGduQYgalox2f-10" value="&lt;font style=&quot;font-size: 20px&quot;&gt;PC[31:0]&lt;br&gt;&lt;br&gt;instr[31:0]&lt;/font&gt;" style="rounded=0;whiteSpace=wrap;html=1;align=center;" parent="1" vertex="1">
          <mxGeometry x="170" y="140" width="110" height="840" as="geometry" />
        </mxCell>
        <mxCell id="M1y-c-umGduQYgalox2f-11" value="&lt;font style=&quot;font-size: 30px&quot;&gt;IF&lt;/font&gt;" style="text;html=1;align=center;verticalAlign=middle;resizable=0;points=[];autosize=1;strokeColor=none;fillColor=none;" parent="1" vertex="1">
          <mxGeometry x="-40" y="-230" width="40" height="30" as="geometry" />
        </mxCell>
        <mxCell id="M1y-c-umGduQYgalox2f-17" value="" style="endArrow=classic;html=1;rounded=0;entryX=0;entryY=0.636;entryDx=0;entryDy=0;entryPerimeter=0;" parent="1" edge="1">
          <mxGeometry width="50" height="50" relative="1" as="geometry">
            <mxPoint x="280" y="260.04" as="sourcePoint" />
            <mxPoint x="520" y="260.00000000000006" as="targetPoint" />
          </mxGeometry>
        </mxCell>
        <mxCell id="M1y-c-umGduQYgalox2f-18" value="" style="endArrow=classic;html=1;rounded=0;entryX=0;entryY=0.75;entryDx=0;entryDy=0;" parent="1" edge="1">
          <mxGeometry width="50" height="50" relative="1" as="geometry">
            <mxPoint x="280" y="300" as="sourcePoint" />
            <mxPoint x="520" y="300" as="targetPoint" />
          </mxGeometry>
        </mxCell>
        <mxCell id="M1y-c-umGduQYgalox2f-19" value="&lt;font style=&quot;font-size: 20px&quot;&gt;&lt;b&gt;PC[31:0]&lt;/b&gt;&lt;/font&gt;" style="text;html=1;align=center;verticalAlign=middle;resizable=0;points=[];autosize=1;strokeColor=none;fillColor=none;" parent="1" vertex="1">
          <mxGeometry x="335" y="230" width="100" height="20" as="geometry" />
        </mxCell>
        <mxCell id="M1y-c-umGduQYgalox2f-20" value="&lt;font style=&quot;font-size: 20px&quot;&gt;&lt;b&gt;instr[31:0]&lt;/b&gt;&lt;/font&gt;" style="text;html=1;align=center;verticalAlign=middle;resizable=0;points=[];autosize=1;strokeColor=none;fillColor=none;" parent="1" vertex="1">
          <mxGeometry x="335" y="270" width="110" height="20" as="geometry" />
        </mxCell>
        <mxCell id="M1y-c-umGduQYgalox2f-22" value="&lt;br&gt;id.v&lt;br&gt;(decoder)" style="rounded=0;whiteSpace=wrap;html=1;fontSize=20;align=center;" parent="1" vertex="1">
          <mxGeometry x="520" y="-140" width="120" height="630" as="geometry" />
        </mxCell>
        <mxCell id="M1y-c-umGduQYgalox2f-24" value="regfile.v" style="rounded=0;whiteSpace=wrap;html=1;fontSize=20;align=center;" parent="1" vertex="1">
          <mxGeometry x="690" y="760" width="120" height="60" as="geometry" />
        </mxCell>
        <mxCell id="M1y-c-umGduQYgalox2f-36" value="&lt;b&gt;reg1_data[31:0]&lt;br&gt;&lt;/b&gt;&lt;b&gt;reg2_data[31:0]&lt;/b&gt;&lt;b&gt;&lt;br&gt;&lt;/b&gt;" style="text;html=1;align=center;verticalAlign=middle;resizable=0;points=[];autosize=1;strokeColor=none;fillColor=none;fontSize=20;" parent="1" vertex="1">
          <mxGeometry x="410" y="600" width="160" height="50" as="geometry" />
        </mxCell>
        <mxCell id="M1y-c-umGduQYgalox2f-38" value="&lt;span style=&quot;font-size: 30px&quot;&gt;ID&lt;/span&gt;" style="text;html=1;align=center;verticalAlign=middle;resizable=0;points=[];autosize=1;strokeColor=none;fillColor=none;" parent="1" vertex="1">
          <mxGeometry x="555" y="-230" width="50" height="30" as="geometry" />
        </mxCell>
        <mxCell id="M1y-c-umGduQYgalox2f-39" value="byte_en&lt;br&gt;mem_read&lt;br&gt;mem_write&lt;br&gt;reg_write_sel&lt;br&gt;&lt;br&gt;aluop[6:0]&lt;br&gt;reg1[31:0]&lt;br&gt;reg2[31:0]&lt;br&gt;waddr[63:0]&lt;br&gt;wreg&lt;br&gt;&lt;br&gt;PC[31:0]&lt;br&gt;PC_4[31:0]&lt;br&gt;instr[31:0]&lt;br&gt;&lt;br&gt;&lt;br&gt;&lt;span style=&quot;color: rgba(0 , 0 , 0 , 0) ; font-family: monospace ; font-size: 0px&quot;&gt;%3CmxGraphModel%3E%3Croot%3E%3CmxCell%20id%3D%220%22%2F%3E%3CmxCell%20id%3D%221%22%20parent%3D%220%22%2F%3E%3CmxCell%20id%3D%222%22%20value%3D%22reg_wb%22%20style%3D%22text%3Bhtml%3D1%3BstrokeColor%3Dnone%3BfillColor%3Dnone%3Balign%3Dcenter%3BverticalAlign%3Dmiddle%3BwhiteSpace%3Dwrap%3Brounded%3D0%3BfontSize%3D20%3B%22%20vertex%3D%221%22%20parent%3D%221%22%3E%3CmxGeometry%20x%3D%221120%22%20y%3D%22805%22%20width%3D%2260%22%20height%3D%2230%22%20as%3D%22geometry%22%2F%3E%3C%2FmxCell%3E%3C%2Froot%3E%3C%2FmxGraphModel%3E&lt;/span&gt;" style="rounded=0;whiteSpace=wrap;html=1;fontSize=20;align=center;" parent="1" vertex="1">
          <mxGeometry x="1390" y="-180" width="140" height="1250" as="geometry" />
        </mxCell>
        <mxCell id="M1y-c-umGduQYgalox2f-41" value="" style="endArrow=classic;html=1;rounded=0;fontSize=20;entryX=0.004;entryY=0.093;entryDx=0;entryDy=0;entryPerimeter=0;exitX=1.02;exitY=0.322;exitDx=0;exitDy=0;exitPerimeter=0;" parent="1" source="M1y-c-umGduQYgalox2f-22" edge="1">
          <mxGeometry width="50" height="50" relative="1" as="geometry">
            <mxPoint x="939.52" y="65.02" as="sourcePoint" />
            <mxPoint x="1390" y="64.55999999999996" as="targetPoint" />
          </mxGeometry>
        </mxCell>
        <mxCell id="M1y-c-umGduQYgalox2f-42" value="" style="endArrow=classic;html=1;rounded=0;fontSize=20;exitX=1;exitY=0.37;exitDx=0;exitDy=0;exitPerimeter=0;entryX=0.007;entryY=0.089;entryDx=0;entryDy=0;entryPerimeter=0;" parent="1" source="M1y-c-umGduQYgalox2f-22" target="n7bHedpDZFb0N75ltOcH-6" edge="1">
          <mxGeometry width="50" height="50" relative="1" as="geometry">
            <mxPoint x="939.52" y="92.02" as="sourcePoint" />
            <mxPoint x="1040" y="1105" as="targetPoint" />
            <Array as="points">
              <mxPoint x="880" y="93" />
              <mxPoint x="910" y="1105" />
            </Array>
          </mxGeometry>
        </mxCell>
        <mxCell id="M1y-c-umGduQYgalox2f-43" value="" style="endArrow=classic;html=1;rounded=0;fontSize=20;exitX=1;exitY=0.41;exitDx=0;exitDy=0;exitPerimeter=0;" parent="1" source="M1y-c-umGduQYgalox2f-22" edge="1">
          <mxGeometry width="50" height="50" relative="1" as="geometry">
            <mxPoint x="939.52" y="122.02" as="sourcePoint" />
            <mxPoint x="1045" y="1135" as="targetPoint" />
            <Array as="points">
              <mxPoint x="870" y="118" />
              <mxPoint x="890" y="1135" />
            </Array>
          </mxGeometry>
        </mxCell>
        <mxCell id="M1y-c-umGduQYgalox2f-44" value="" style="endArrow=classic;html=1;rounded=0;fontSize=20;entryX=-0.008;entryY=0.207;entryDx=0;entryDy=0;entryPerimeter=0;exitX=1;exitY=0.462;exitDx=0;exitDy=0;exitPerimeter=0;" parent="1" source="M1y-c-umGduQYgalox2f-22" edge="1">
          <mxGeometry width="50" height="50" relative="1" as="geometry">
            <mxPoint x="939.52" y="152.01999999999998" as="sourcePoint" />
            <mxPoint x="1388.56" y="153.48000000000002" as="targetPoint" />
          </mxGeometry>
        </mxCell>
        <mxCell id="M1y-c-umGduQYgalox2f-48" value="&lt;span style=&quot;font-size: 30px&quot;&gt;EXE&lt;/span&gt;" style="text;html=1;align=center;verticalAlign=middle;resizable=0;points=[];autosize=1;strokeColor=none;fillColor=none;" parent="1" vertex="1">
          <mxGeometry x="2000" y="-250" width="80" height="30" as="geometry" />
        </mxCell>
        <mxCell id="M1y-c-umGduQYgalox2f-49" value="&lt;b&gt;aluop[6:0]&lt;/b&gt;" style="text;html=1;align=center;verticalAlign=middle;resizable=0;points=[];autosize=1;strokeColor=none;fillColor=none;fontSize=20;" parent="1" vertex="1">
          <mxGeometry x="730" y="30" width="110" height="30" as="geometry" />
        </mxCell>
        <mxCell id="M1y-c-umGduQYgalox2f-50" value="&lt;b&gt;reg1[31:0]&lt;/b&gt;" style="text;html=1;align=center;verticalAlign=middle;resizable=0;points=[];autosize=1;strokeColor=none;fillColor=none;fontSize=20;" parent="1" vertex="1">
          <mxGeometry x="910" y="1070" width="110" height="30" as="geometry" />
        </mxCell>
        <mxCell id="M1y-c-umGduQYgalox2f-51" value="&lt;b&gt;reg2[31:0] (val of imm if imm)&lt;/b&gt;" style="text;html=1;align=center;verticalAlign=middle;resizable=0;points=[];autosize=1;strokeColor=none;fillColor=none;fontSize=20;" parent="1" vertex="1">
          <mxGeometry x="790" y="1150" width="290" height="30" as="geometry" />
        </mxCell>
        <mxCell id="M1y-c-umGduQYgalox2f-52" value="&lt;b&gt;waddr[63:0]&lt;/b&gt;" style="text;html=1;align=center;verticalAlign=middle;resizable=0;points=[];autosize=1;strokeColor=none;fillColor=none;fontSize=20;" parent="1" vertex="1">
          <mxGeometry x="720" y="120" width="130" height="30" as="geometry" />
        </mxCell>
        <mxCell id="M1y-c-umGduQYgalox2f-53" value="&lt;b&gt;wreg&lt;/b&gt;" style="text;html=1;align=center;verticalAlign=middle;resizable=0;points=[];autosize=1;strokeColor=none;fillColor=none;fontSize=20;" parent="1" vertex="1">
          <mxGeometry x="745" y="152" width="60" height="30" as="geometry" />
        </mxCell>
        <mxCell id="M1y-c-umGduQYgalox2f-56" value="" style="endArrow=classic;html=1;rounded=0;fontSize=20;exitX=1;exitY=0.514;exitDx=0;exitDy=0;exitPerimeter=0;" parent="1" source="M1y-c-umGduQYgalox2f-22" edge="1">
          <mxGeometry width="50" height="50" relative="1" as="geometry">
            <mxPoint x="939.52" y="184.01999999999998" as="sourcePoint" />
            <mxPoint x="1389.52" y="184.01999999999998" as="targetPoint" />
          </mxGeometry>
        </mxCell>
        <mxCell id="M1y-c-umGduQYgalox2f-57" value="" style="endArrow=classic;html=1;rounded=0;fontSize=20;exitX=1.01;exitY=0.628;exitDx=0;exitDy=0;exitPerimeter=0;" parent="1" source="M1y-c-umGduQYgalox2f-22" edge="1">
          <mxGeometry width="50" height="50" relative="1" as="geometry">
            <mxPoint x="940" y="260" as="sourcePoint" />
            <mxPoint x="1390" y="260" as="targetPoint" />
          </mxGeometry>
        </mxCell>
        <mxCell id="M1y-c-umGduQYgalox2f-58" value="" style="endArrow=classic;html=1;rounded=0;fontSize=20;" parent="1" edge="1">
          <mxGeometry width="50" height="50" relative="1" as="geometry">
            <mxPoint x="640" y="300" as="sourcePoint" />
            <mxPoint x="1390" y="300" as="targetPoint" />
          </mxGeometry>
        </mxCell>
        <mxCell id="M1y-c-umGduQYgalox2f-59" value="&lt;font style=&quot;font-size: 20px&quot;&gt;PC[31:0]&lt;/font&gt;" style="text;html=1;align=center;verticalAlign=middle;resizable=0;points=[];autosize=1;strokeColor=none;fillColor=none;" parent="1" vertex="1">
          <mxGeometry x="750" y="230" width="90" height="20" as="geometry" />
        </mxCell>
        <mxCell id="M1y-c-umGduQYgalox2f-60" value="&lt;font style=&quot;font-size: 20px&quot;&gt;instr[31:0]&lt;/font&gt;" style="text;html=1;align=center;verticalAlign=middle;resizable=0;points=[];autosize=1;strokeColor=none;fillColor=none;" parent="1" vertex="1">
          <mxGeometry x="745" y="270" width="100" height="20" as="geometry" />
        </mxCell>
        <mxCell id="M1y-c-umGduQYgalox2f-64" value="&lt;b&gt;aluop[6:0]&lt;/b&gt;" style="text;html=1;align=center;verticalAlign=middle;resizable=0;points=[];autosize=1;strokeColor=none;fillColor=none;fontSize=20;" parent="1" vertex="1">
          <mxGeometry x="1593" y="20" width="110" height="30" as="geometry" />
        </mxCell>
        <mxCell id="M1y-c-umGduQYgalox2f-65" value="&lt;b&gt;reg1[31:0]&lt;/b&gt;" style="text;html=1;align=center;verticalAlign=middle;resizable=0;points=[];autosize=1;strokeColor=none;fillColor=none;fontSize=20;" parent="1" vertex="1">
          <mxGeometry x="1593" y="52" width="110" height="30" as="geometry" />
        </mxCell>
        <mxCell id="M1y-c-umGduQYgalox2f-66" value="&lt;b&gt;reg2[31:0] (val of imm if imm)&lt;/b&gt;" style="text;html=1;align=center;verticalAlign=middle;resizable=0;points=[];autosize=1;strokeColor=none;fillColor=none;fontSize=20;" parent="1" vertex="1">
          <mxGeometry x="1540" y="80" width="290" height="30" as="geometry" />
        </mxCell>
        <mxCell id="M1y-c-umGduQYgalox2f-67" value="&lt;b&gt;waddr[4:0]&lt;/b&gt;" style="text;html=1;align=center;verticalAlign=middle;resizable=0;points=[];autosize=1;strokeColor=none;fillColor=none;fontSize=20;" parent="1" vertex="1">
          <mxGeometry x="1588" y="110" width="120" height="30" as="geometry" />
        </mxCell>
        <mxCell id="M1y-c-umGduQYgalox2f-68" value="wreg" style="text;html=1;align=center;verticalAlign=middle;resizable=0;points=[];autosize=1;strokeColor=none;fillColor=none;fontSize=20;" parent="1" vertex="1">
          <mxGeometry x="1608" y="142" width="60" height="30" as="geometry" />
        </mxCell>
        <mxCell id="M1y-c-umGduQYgalox2f-69" value="&lt;font style=&quot;font-size: 20px&quot;&gt;PC[31:0]&lt;/font&gt;" style="text;html=1;align=center;verticalAlign=middle;resizable=0;points=[];autosize=1;strokeColor=none;fillColor=none;" parent="1" vertex="1">
          <mxGeometry x="1613" y="220" width="90" height="20" as="geometry" />
        </mxCell>
        <mxCell id="M1y-c-umGduQYgalox2f-70" value="&lt;font style=&quot;font-size: 20px&quot;&gt;instr[31:0]&lt;/font&gt;" style="text;html=1;align=center;verticalAlign=middle;resizable=0;points=[];autosize=1;strokeColor=none;fillColor=none;" parent="1" vertex="1">
          <mxGeometry x="1608" y="260" width="100" height="20" as="geometry" />
        </mxCell>
        <mxCell id="M1y-c-umGduQYgalox2f-71" value="" style="endArrow=classic;html=1;rounded=0;fontSize=20;entryX=0.004;entryY=0.093;entryDx=0;entryDy=0;entryPerimeter=0;" parent="1" edge="1">
          <mxGeometry width="50" height="50" relative="1" as="geometry">
            <mxPoint x="1530" y="53.58999999999998" as="sourcePoint" />
            <mxPoint x="1980.48" y="53.12999999999972" as="targetPoint" />
          </mxGeometry>
        </mxCell>
        <mxCell id="M1y-c-umGduQYgalox2f-72" value="" style="endArrow=classic;html=1;rounded=0;fontSize=20;" parent="1" edge="1">
          <mxGeometry width="50" height="50" relative="1" as="geometry">
            <mxPoint x="1530" y="80.58999999999997" as="sourcePoint" />
            <mxPoint x="1980" y="80.58999999999997" as="targetPoint" />
          </mxGeometry>
        </mxCell>
        <mxCell id="M1y-c-umGduQYgalox2f-73" value="" style="endArrow=classic;html=1;rounded=0;fontSize=20;" parent="1" edge="1">
          <mxGeometry width="50" height="50" relative="1" as="geometry">
            <mxPoint x="1530" y="110.58999999999997" as="sourcePoint" />
            <mxPoint x="1980" y="110.58999999999997" as="targetPoint" />
          </mxGeometry>
        </mxCell>
        <mxCell id="M1y-c-umGduQYgalox2f-74" value="" style="endArrow=classic;html=1;rounded=0;fontSize=20;" parent="1" edge="1">
          <mxGeometry width="50" height="50" relative="1" as="geometry">
            <mxPoint x="2090" y="140.53999999999996" as="sourcePoint" />
            <mxPoint x="2550" y="142" as="targetPoint" />
          </mxGeometry>
        </mxCell>
        <mxCell id="M1y-c-umGduQYgalox2f-75" value="" style="endArrow=classic;html=1;rounded=0;fontSize=20;" parent="1" edge="1">
          <mxGeometry width="50" height="50" relative="1" as="geometry">
            <mxPoint x="1530" y="172.58999999999997" as="sourcePoint" />
            <mxPoint x="1980" y="172.58999999999997" as="targetPoint" />
          </mxGeometry>
        </mxCell>
        <mxCell id="M1y-c-umGduQYgalox2f-76" value="" style="endArrow=classic;html=1;rounded=0;fontSize=20;" parent="1" edge="1">
          <mxGeometry width="50" height="50" relative="1" as="geometry">
            <mxPoint x="1530.48" y="248.57" as="sourcePoint" />
            <mxPoint x="1980.48" y="248.57" as="targetPoint" />
          </mxGeometry>
        </mxCell>
        <mxCell id="M1y-c-umGduQYgalox2f-77" value="" style="endArrow=classic;html=1;rounded=0;fontSize=20;" parent="1" edge="1">
          <mxGeometry width="50" height="50" relative="1" as="geometry">
            <mxPoint x="1530.48" y="288.57" as="sourcePoint" />
            <mxPoint x="1980.48" y="288.57" as="targetPoint" />
          </mxGeometry>
        </mxCell>
        <mxCell id="M1y-c-umGduQYgalox2f-81" value="ex.v&lt;br&gt;(alu)" style="rounded=0;whiteSpace=wrap;html=1;fontSize=20;align=center;" parent="1" vertex="1">
          <mxGeometry x="1980" y="-190" width="120" height="600" as="geometry" />
        </mxCell>
        <mxCell id="M1y-c-umGduQYgalox2f-83" value="waddr[4:0]" style="text;html=1;align=center;verticalAlign=middle;resizable=0;points=[];autosize=1;strokeColor=none;fillColor=none;fontSize=20;" parent="1" vertex="1">
          <mxGeometry x="2165" y="112" width="110" height="30" as="geometry" />
        </mxCell>
        <mxCell id="M1y-c-umGduQYgalox2f-84" value="" style="endArrow=classic;html=1;rounded=0;fontSize=20;" parent="1" edge="1">
          <mxGeometry width="50" height="50" relative="1" as="geometry">
            <mxPoint x="1530" y="140" as="sourcePoint" />
            <mxPoint x="1980" y="140" as="targetPoint" />
          </mxGeometry>
        </mxCell>
        <mxCell id="M1y-c-umGduQYgalox2f-85" value="wreg" style="text;html=1;align=center;verticalAlign=middle;resizable=0;points=[];autosize=1;strokeColor=none;fillColor=none;fontSize=20;" parent="1" vertex="1">
          <mxGeometry x="2174" y="145" width="60" height="30" as="geometry" />
        </mxCell>
        <mxCell id="M1y-c-umGduQYgalox2f-86" value="" style="endArrow=classic;html=1;rounded=0;fontSize=20;" parent="1" edge="1">
          <mxGeometry width="50" height="50" relative="1" as="geometry">
            <mxPoint x="2100" y="172.59000000000015" as="sourcePoint" />
            <mxPoint x="2550" y="172.59000000000015" as="targetPoint" />
          </mxGeometry>
        </mxCell>
        <mxCell id="M1y-c-umGduQYgalox2f-87" value="&lt;font style=&quot;font-size: 20px&quot;&gt;PC[31:0]&lt;/font&gt;" style="text;html=1;align=center;verticalAlign=middle;resizable=0;points=[];autosize=1;strokeColor=none;fillColor=none;" parent="1" vertex="1">
          <mxGeometry x="2182.52" y="220" width="90" height="20" as="geometry" />
        </mxCell>
        <mxCell id="M1y-c-umGduQYgalox2f-88" value="&lt;font style=&quot;font-size: 20px&quot;&gt;instr[31:0]&lt;/font&gt;" style="text;html=1;align=center;verticalAlign=middle;resizable=0;points=[];autosize=1;strokeColor=none;fillColor=none;" parent="1" vertex="1">
          <mxGeometry x="2177.52" y="260" width="100" height="20" as="geometry" />
        </mxCell>
        <mxCell id="M1y-c-umGduQYgalox2f-89" value="" style="endArrow=classic;html=1;rounded=0;fontSize=20;" parent="1" edge="1">
          <mxGeometry width="50" height="50" relative="1" as="geometry">
            <mxPoint x="2100" y="248.57000000000016" as="sourcePoint" />
            <mxPoint x="2550.0000000000005" y="248.57000000000016" as="targetPoint" />
          </mxGeometry>
        </mxCell>
        <mxCell id="M1y-c-umGduQYgalox2f-90" value="" style="endArrow=classic;html=1;rounded=0;fontSize=20;" parent="1" edge="1">
          <mxGeometry width="50" height="50" relative="1" as="geometry">
            <mxPoint x="2100" y="288.57000000000016" as="sourcePoint" />
            <mxPoint x="2550.0000000000005" y="288.57000000000016" as="targetPoint" />
          </mxGeometry>
        </mxCell>
        <mxCell id="M1y-c-umGduQYgalox2f-91" value="" style="endArrow=classic;html=1;rounded=0;fontSize=20;" parent="1" edge="1">
          <mxGeometry width="50" height="50" relative="1" as="geometry">
            <mxPoint x="2100" y="78.53999999999996" as="sourcePoint" />
            <mxPoint x="2550" y="80" as="targetPoint" />
          </mxGeometry>
        </mxCell>
        <mxCell id="M1y-c-umGduQYgalox2f-92" value="&lt;b&gt;wdata[31:0](result)&lt;/b&gt;" style="text;html=1;align=center;verticalAlign=middle;resizable=0;points=[];autosize=1;strokeColor=none;fillColor=none;fontSize=20;" parent="1" vertex="1">
          <mxGeometry x="2155" y="50" width="190" height="30" as="geometry" />
        </mxCell>
        <mxCell id="M1y-c-umGduQYgalox2f-93" value="b[31:0] (reg2)" style="text;html=1;align=center;verticalAlign=middle;resizable=0;points=[];autosize=1;strokeColor=none;fillColor=none;fontSize=20;fontStyle=1" parent="1" vertex="1">
          <mxGeometry x="2157.52" y="82" width="140" height="30" as="geometry" />
        </mxCell>
        <mxCell id="M1y-c-umGduQYgalox2f-94" value="" style="endArrow=classic;html=1;rounded=0;fontSize=20;" parent="1" edge="1">
          <mxGeometry width="50" height="50" relative="1" as="geometry">
            <mxPoint x="2100" y="112.59000000000015" as="sourcePoint" />
            <mxPoint x="2550" y="112.59000000000015" as="targetPoint" />
          </mxGeometry>
        </mxCell>
        <mxCell id="M1y-c-umGduQYgalox2f-97" value="byte_en&lt;br&gt;mem_read&lt;br&gt;mem_write&lt;br&gt;reg_write_sel&lt;br&gt;&lt;br&gt;wdata[31:0]&lt;br&gt;b[31:0]&lt;br&gt;waddr[63:0]&lt;br&gt;wreg&lt;br&gt;&lt;br&gt;PC[31:0]&lt;br&gt;PC_4[31:0]&lt;br&gt;instr[31:0]" style="rounded=0;whiteSpace=wrap;html=1;fontSize=20;align=center;" parent="1" vertex="1">
          <mxGeometry x="2550" y="-190" width="120" height="1170" as="geometry" />
        </mxCell>
        <mxCell id="M1y-c-umGduQYgalox2f-98" value="&lt;font style=&quot;font-size: 30px&quot;&gt;exe_mem.v&lt;/font&gt;" style="text;html=1;align=center;verticalAlign=middle;resizable=0;points=[];autosize=1;strokeColor=none;fillColor=none;fontSize=20;" parent="1" vertex="1">
          <mxGeometry x="2525" y="-250" width="170" height="30" as="geometry" />
        </mxCell>
        <mxCell id="M1y-c-umGduQYgalox2f-116" value="waddr[4:0]" style="text;html=1;align=center;verticalAlign=middle;resizable=0;points=[];autosize=1;strokeColor=none;fillColor=none;fontSize=20;" parent="1" vertex="1">
          <mxGeometry x="2720.48" y="117" width="110" height="30" as="geometry" />
        </mxCell>
        <mxCell id="M1y-c-umGduQYgalox2f-117" value="wreg" style="text;html=1;align=center;verticalAlign=middle;resizable=0;points=[];autosize=1;strokeColor=none;fillColor=none;fontSize=20;" parent="1" vertex="1">
          <mxGeometry x="2729.48" y="150" width="60" height="30" as="geometry" />
        </mxCell>
        <mxCell id="M1y-c-umGduQYgalox2f-118" value="&lt;font style=&quot;font-size: 20px&quot;&gt;PC[31:0]&lt;/font&gt;" style="text;html=1;align=center;verticalAlign=middle;resizable=0;points=[];autosize=1;strokeColor=none;fillColor=none;" parent="1" vertex="1">
          <mxGeometry x="2738" y="225" width="90" height="20" as="geometry" />
        </mxCell>
        <mxCell id="M1y-c-umGduQYgalox2f-119" value="&lt;font style=&quot;font-size: 20px&quot;&gt;instr[31:0]&lt;/font&gt;" style="text;html=1;align=center;verticalAlign=middle;resizable=0;points=[];autosize=1;strokeColor=none;fillColor=none;" parent="1" vertex="1">
          <mxGeometry x="2733" y="265" width="100" height="20" as="geometry" />
        </mxCell>
        <mxCell id="M1y-c-umGduQYgalox2f-120" value="wdata[31:0](result)" style="text;html=1;align=center;verticalAlign=middle;resizable=0;points=[];autosize=1;strokeColor=none;fillColor=none;fontSize=20;" parent="1" vertex="1">
          <mxGeometry x="2715.48" y="55" width="180" height="30" as="geometry" />
        </mxCell>
        <mxCell id="M1y-c-umGduQYgalox2f-121" value="b[31:0] (imm)" style="text;html=1;align=center;verticalAlign=middle;resizable=0;points=[];autosize=1;strokeColor=none;fillColor=none;fontSize=20;" parent="1" vertex="1">
          <mxGeometry x="2718" y="87" width="130" height="30" as="geometry" />
        </mxCell>
        <mxCell id="M1y-c-umGduQYgalox2f-128" value="" style="endArrow=classic;html=1;rounded=0;fontSize=20;" parent="1" edge="1">
          <mxGeometry width="50" height="50" relative="1" as="geometry">
            <mxPoint x="2670" y="145" as="sourcePoint" />
            <mxPoint x="3120" y="145.46" as="targetPoint" />
          </mxGeometry>
        </mxCell>
        <mxCell id="M1y-c-umGduQYgalox2f-129" value="" style="endArrow=classic;html=1;rounded=0;fontSize=20;" parent="1" edge="1">
          <mxGeometry width="50" height="50" relative="1" as="geometry">
            <mxPoint x="2670" y="176.05000000000015" as="sourcePoint" />
            <mxPoint x="3120" y="176.05000000000015" as="targetPoint" />
          </mxGeometry>
        </mxCell>
        <mxCell id="M1y-c-umGduQYgalox2f-130" value="" style="endArrow=classic;html=1;rounded=0;fontSize=20;" parent="1" edge="1">
          <mxGeometry width="50" height="50" relative="1" as="geometry">
            <mxPoint x="2670" y="252.03000000000017" as="sourcePoint" />
            <mxPoint x="3120.0000000000005" y="252.03000000000017" as="targetPoint" />
          </mxGeometry>
        </mxCell>
        <mxCell id="M1y-c-umGduQYgalox2f-131" value="" style="endArrow=classic;html=1;rounded=0;fontSize=20;" parent="1" edge="1">
          <mxGeometry width="50" height="50" relative="1" as="geometry">
            <mxPoint x="2670" y="292.03000000000014" as="sourcePoint" />
            <mxPoint x="3120.0000000000005" y="292.03000000000014" as="targetPoint" />
          </mxGeometry>
        </mxCell>
        <mxCell id="M1y-c-umGduQYgalox2f-132" value="" style="endArrow=classic;html=1;rounded=0;fontSize=20;" parent="1" edge="1">
          <mxGeometry width="50" height="50" relative="1" as="geometry">
            <mxPoint x="2670" y="81.99999999999996" as="sourcePoint" />
            <mxPoint x="3120" y="83.46000000000022" as="targetPoint" />
          </mxGeometry>
        </mxCell>
        <mxCell id="M1y-c-umGduQYgalox2f-133" value="" style="endArrow=classic;html=1;rounded=0;fontSize=20;" parent="1" edge="1">
          <mxGeometry width="50" height="50" relative="1" as="geometry">
            <mxPoint x="2670" y="116.05000000000014" as="sourcePoint" />
            <mxPoint x="3120" y="116.05000000000014" as="targetPoint" />
          </mxGeometry>
        </mxCell>
        <mxCell id="M1y-c-umGduQYgalox2f-134" value="mem.v&lt;br&gt;(memory)" style="rounded=0;whiteSpace=wrap;html=1;fontSize=20;align=center;" parent="1" vertex="1">
          <mxGeometry x="3120" y="-190" width="120" height="750" as="geometry" />
        </mxCell>
        <mxCell id="M1y-c-umGduQYgalox2f-141" value="&lt;span style=&quot;font-size: 30px&quot;&gt;MEM&lt;/span&gt;" style="text;html=1;align=center;verticalAlign=middle;resizable=0;points=[];autosize=1;strokeColor=none;fillColor=none;" parent="1" vertex="1">
          <mxGeometry x="3135" y="-240" width="90" height="30" as="geometry" />
        </mxCell>
        <mxCell id="M1y-c-umGduQYgalox2f-142" value="waddr[4:0]" style="text;html=1;align=center;verticalAlign=middle;resizable=0;points=[];autosize=1;strokeColor=none;fillColor=none;fontSize=20;fontStyle=1" parent="1" vertex="1">
          <mxGeometry x="3285.48" y="122" width="120" height="30" as="geometry" />
        </mxCell>
        <mxCell id="M1y-c-umGduQYgalox2f-143" value="wreg" style="text;html=1;align=center;verticalAlign=middle;resizable=0;points=[];autosize=1;strokeColor=none;fillColor=none;fontSize=20;fontStyle=1" parent="1" vertex="1">
          <mxGeometry x="3299.48" y="155" width="60" height="30" as="geometry" />
        </mxCell>
        <mxCell id="M1y-c-umGduQYgalox2f-144" value="&lt;font style=&quot;font-size: 20px&quot;&gt;PC[31:0]&lt;/font&gt;" style="text;html=1;align=center;verticalAlign=middle;resizable=0;points=[];autosize=1;strokeColor=none;fillColor=none;" parent="1" vertex="1">
          <mxGeometry x="3308" y="230" width="90" height="20" as="geometry" />
        </mxCell>
        <mxCell id="M1y-c-umGduQYgalox2f-145" value="&lt;font style=&quot;font-size: 20px&quot;&gt;instr[31:0]&lt;/font&gt;" style="text;html=1;align=center;verticalAlign=middle;resizable=0;points=[];autosize=1;strokeColor=none;fillColor=none;" parent="1" vertex="1">
          <mxGeometry x="3303" y="270" width="100" height="20" as="geometry" />
        </mxCell>
        <mxCell id="M1y-c-umGduQYgalox2f-146" value="wdata[31:0](result)" style="text;html=1;align=center;verticalAlign=middle;resizable=0;points=[];autosize=1;strokeColor=none;fillColor=none;fontSize=20;" parent="1" vertex="1">
          <mxGeometry x="3285.48" y="60" width="180" height="30" as="geometry" />
        </mxCell>
        <mxCell id="M1y-c-umGduQYgalox2f-147" value="" style="endArrow=classic;html=1;rounded=0;fontSize=20;" parent="1" edge="1">
          <mxGeometry width="50" height="50" relative="1" as="geometry">
            <mxPoint x="3240" y="150" as="sourcePoint" />
            <mxPoint x="3690" y="150.46000000000004" as="targetPoint" />
          </mxGeometry>
        </mxCell>
        <mxCell id="M1y-c-umGduQYgalox2f-148" value="" style="endArrow=classic;html=1;rounded=0;fontSize=20;" parent="1" edge="1">
          <mxGeometry width="50" height="50" relative="1" as="geometry">
            <mxPoint x="3240" y="181.05000000000018" as="sourcePoint" />
            <mxPoint x="3690" y="181.05000000000018" as="targetPoint" />
          </mxGeometry>
        </mxCell>
        <mxCell id="M1y-c-umGduQYgalox2f-149" value="" style="endArrow=classic;html=1;rounded=0;fontSize=20;" parent="1" edge="1">
          <mxGeometry width="50" height="50" relative="1" as="geometry">
            <mxPoint x="3240" y="257.0300000000002" as="sourcePoint" />
            <mxPoint x="3690" y="257.0300000000002" as="targetPoint" />
          </mxGeometry>
        </mxCell>
        <mxCell id="M1y-c-umGduQYgalox2f-150" value="" style="endArrow=classic;html=1;rounded=0;fontSize=20;" parent="1" edge="1">
          <mxGeometry width="50" height="50" relative="1" as="geometry">
            <mxPoint x="3240" y="297.0300000000002" as="sourcePoint" />
            <mxPoint x="3690" y="297.0300000000002" as="targetPoint" />
          </mxGeometry>
        </mxCell>
        <mxCell id="M1y-c-umGduQYgalox2f-151" value="" style="endArrow=classic;html=1;rounded=0;fontSize=20;" parent="1" edge="1">
          <mxGeometry width="50" height="50" relative="1" as="geometry">
            <mxPoint x="3240" y="87" as="sourcePoint" />
            <mxPoint x="3690" y="88.46000000000026" as="targetPoint" />
          </mxGeometry>
        </mxCell>
        <mxCell id="M1y-c-umGduQYgalox2f-152" value="&lt;span style=&quot;color: rgb(0 , 0 , 0) ; font-family: &amp;#34;helvetica&amp;#34; ; font-size: 20px ; font-style: normal ; font-weight: 400 ; letter-spacing: normal ; text-align: center ; text-indent: 0px ; text-transform: none ; word-spacing: 0px ; background-color: rgb(248 , 249 , 250) ; display: inline ; float: none&quot;&gt;reg_write_sel&lt;br&gt;&lt;br&gt;wdata[31:0]&lt;br&gt;&lt;span style=&quot;font-family: &amp;#34;helvetica&amp;#34;&quot;&gt;waddr[4:0]&lt;br&gt;&lt;/span&gt;wreg&lt;br&gt;&lt;br&gt;PC[31:0]&lt;br&gt;&lt;span style=&quot;font-family: &amp;#34;helvetica&amp;#34;&quot;&gt;PC_4[31:0]&lt;/span&gt;&lt;br&gt;instr[31:0]&lt;br&gt;&lt;/span&gt;" style="rounded=0;whiteSpace=wrap;html=1;fontSize=20;align=center;" parent="1" vertex="1">
          <mxGeometry x="3691" y="-190" width="120" height="1180" as="geometry" />
        </mxCell>
        <mxCell id="M1y-c-umGduQYgalox2f-157" value="mem_out[31:0]" style="text;html=1;align=center;verticalAlign=middle;resizable=0;points=[];autosize=1;strokeColor=none;fillColor=none;fontSize=20;" parent="1" vertex="1">
          <mxGeometry x="3869.48" y="122" width="150" height="30" as="geometry" />
        </mxCell>
        <mxCell id="M1y-c-umGduQYgalox2f-158" value="" style="endArrow=classic;html=1;rounded=0;fontSize=20;entryX=0.54;entryY=0.998;entryDx=0;entryDy=0;entryPerimeter=0;" parent="1" target="M1y-c-umGduQYgalox2f-167" edge="1">
          <mxGeometry width="50" height="50" relative="1" as="geometry">
            <mxPoint x="3810" y="152" as="sourcePoint" />
            <mxPoint x="4260" y="152.46000000000004" as="targetPoint" />
            <Array as="points">
              <mxPoint x="4240" y="150" />
              <mxPoint x="4240" y="589" />
            </Array>
          </mxGeometry>
        </mxCell>
        <mxCell id="M1y-c-umGduQYgalox2f-162" value="" style="endArrow=classic;html=1;rounded=0;fontSize=20;entryX=0.75;entryY=1;entryDx=0;entryDy=0;" parent="1" target="M1y-c-umGduQYgalox2f-167" edge="1">
          <mxGeometry width="50" height="50" relative="1" as="geometry">
            <mxPoint x="3810" y="89" as="sourcePoint" />
            <mxPoint x="4260" y="90.46000000000004" as="targetPoint" />
            <Array as="points">
              <mxPoint x="4160" y="89" />
              <mxPoint x="4160" y="533" />
            </Array>
          </mxGeometry>
        </mxCell>
        <mxCell id="M1y-c-umGduQYgalox2f-165" value="&lt;font style=&quot;font-size: 30px&quot;&gt;mem_wb.v&lt;/font&gt;" style="text;html=1;align=center;verticalAlign=middle;resizable=0;points=[];autosize=1;strokeColor=none;fillColor=none;fontSize=20;" parent="1" vertex="1">
          <mxGeometry x="3671" y="-250" width="160" height="30" as="geometry" />
        </mxCell>
        <mxCell id="M1y-c-umGduQYgalox2f-166" value="wdata[31:0](result)" style="text;html=1;align=center;verticalAlign=middle;resizable=0;points=[];autosize=1;strokeColor=none;fillColor=none;fontSize=20;" parent="1" vertex="1">
          <mxGeometry x="3870" y="50" width="180" height="30" as="geometry" />
        </mxCell>
        <mxCell id="M1y-c-umGduQYgalox2f-167" value="wb.v" style="shape=trapezoid;perimeter=trapezoidPerimeter;whiteSpace=wrap;html=1;fixedSize=1;fontSize=20;align=center;rotation=-90;" parent="1" vertex="1">
          <mxGeometry x="3860" y="530" width="270" height="140" as="geometry" />
        </mxCell>
        <mxCell id="M1y-c-umGduQYgalox2f-178" value="b[31:0] (imm)" style="text;html=1;align=center;verticalAlign=middle;resizable=0;points=[];autosize=1;strokeColor=none;fillColor=none;fontSize=20;" parent="1" vertex="1">
          <mxGeometry x="3320.48" y="90" width="130" height="30" as="geometry" />
        </mxCell>
        <mxCell id="M1y-c-umGduQYgalox2f-179" value="" style="endArrow=classic;html=1;rounded=0;fontSize=20;" parent="1" edge="1">
          <mxGeometry width="50" height="50" relative="1" as="geometry">
            <mxPoint x="3240" y="119.05000000000018" as="sourcePoint" />
            <mxPoint x="3690" y="119.05000000000018" as="targetPoint" />
          </mxGeometry>
        </mxCell>
        <mxCell id="M1y-c-umGduQYgalox2f-180" value="b[31:0] (imm)" style="text;html=1;align=center;verticalAlign=middle;resizable=0;points=[];autosize=1;strokeColor=none;fillColor=none;fontSize=20;" parent="1" vertex="1">
          <mxGeometry x="3890.48" y="92" width="130" height="30" as="geometry" />
        </mxCell>
        <mxCell id="M1y-c-umGduQYgalox2f-181" value="" style="endArrow=classic;html=1;rounded=0;fontSize=20;entryX=0.615;entryY=1.014;entryDx=0;entryDy=0;entryPerimeter=0;" parent="1" target="M1y-c-umGduQYgalox2f-167" edge="1">
          <mxGeometry width="50" height="50" relative="1" as="geometry">
            <mxPoint x="3810" y="121.05000000000018" as="sourcePoint" />
            <mxPoint x="4260" y="121.05000000000018" as="targetPoint" />
            <Array as="points">
              <mxPoint x="4200" y="121" />
              <mxPoint x="4200" y="569" />
            </Array>
          </mxGeometry>
        </mxCell>
        <mxCell id="M1y-c-umGduQYgalox2f-182" value="" style="endArrow=classic;html=1;rounded=0;fontSize=20;entryX=-0.007;entryY=0.926;entryDx=0;entryDy=0;entryPerimeter=0;" parent="1" target="M1y-c-umGduQYgalox2f-97" edge="1">
          <mxGeometry width="50" height="50" relative="1" as="geometry">
            <mxPoint x="1530" y="893" as="sourcePoint" />
            <mxPoint x="1580" y="830" as="targetPoint" />
          </mxGeometry>
        </mxCell>
        <mxCell id="M1y-c-umGduQYgalox2f-183" value="pc_4" style="text;html=1;align=center;verticalAlign=middle;resizable=0;points=[];autosize=1;strokeColor=none;fillColor=none;fontSize=20;" parent="1" vertex="1">
          <mxGeometry x="1528" y="860" width="60" height="30" as="geometry" />
        </mxCell>
        <mxCell id="M1y-c-umGduQYgalox2f-184" value="" style="endArrow=classic;html=1;rounded=0;fontSize=20;entryX=-0.017;entryY=0.897;entryDx=0;entryDy=0;entryPerimeter=0;" parent="1" edge="1">
          <mxGeometry width="50" height="50" relative="1" as="geometry">
            <mxPoint x="2671.02" y="890" as="sourcePoint" />
            <mxPoint x="3688.98" y="890.0900000000001" as="targetPoint" />
          </mxGeometry>
        </mxCell>
        <mxCell id="M1y-c-umGduQYgalox2f-185" value="pc_4" style="text;html=1;align=center;verticalAlign=middle;resizable=0;points=[];autosize=1;strokeColor=none;fillColor=none;fontSize=20;" parent="1" vertex="1">
          <mxGeometry x="2671.02" y="860" width="60" height="30" as="geometry" />
        </mxCell>
        <mxCell id="M1y-c-umGduQYgalox2f-186" value="" style="endArrow=classic;html=1;rounded=0;fontSize=20;entryX=0.25;entryY=1;entryDx=0;entryDy=0;" parent="1" target="M1y-c-umGduQYgalox2f-167" edge="1">
          <mxGeometry width="50" height="50" relative="1" as="geometry">
            <mxPoint x="3811" y="900" as="sourcePoint" />
            <mxPoint x="4066" y="890" as="targetPoint" />
            <Array as="points">
              <mxPoint x="4190" y="900" />
              <mxPoint x="4190" y="668" />
            </Array>
          </mxGeometry>
        </mxCell>
        <mxCell id="M1y-c-umGduQYgalox2f-187" value="pc_4" style="text;html=1;align=center;verticalAlign=middle;resizable=0;points=[];autosize=1;strokeColor=none;fillColor=none;fontSize=20;" parent="1" vertex="1">
          <mxGeometry x="3811" y="870" width="60" height="30" as="geometry" />
        </mxCell>
        <mxCell id="M1y-c-umGduQYgalox2f-188" value="" style="endArrow=classic;html=1;rounded=0;fontSize=20;exitX=0.5;exitY=0;exitDx=0;exitDy=0;" parent="1" source="M1y-c-umGduQYgalox2f-167" edge="1">
          <mxGeometry width="50" height="50" relative="1" as="geometry">
            <mxPoint x="3810" y="710" as="sourcePoint" />
            <mxPoint x="3810" y="600" as="targetPoint" />
          </mxGeometry>
        </mxCell>
        <mxCell id="M1y-c-umGduQYgalox2f-189" value="" style="endArrow=classic;html=1;rounded=0;fontSize=20;entryX=1;entryY=0.673;entryDx=0;entryDy=0;entryPerimeter=0;" parent="1" target="M1y-c-umGduQYgalox2f-97" edge="1">
          <mxGeometry width="50" height="50" relative="1" as="geometry">
            <mxPoint x="3690" y="597" as="sourcePoint" />
            <mxPoint x="3050" y="660" as="targetPoint" />
          </mxGeometry>
        </mxCell>
        <mxCell id="M1y-c-umGduQYgalox2f-190" value="" style="endArrow=classic;html=1;rounded=0;fontSize=20;exitX=-0.019;exitY=0.676;exitDx=0;exitDy=0;entryX=1.004;entryY=0.625;entryDx=0;entryDy=0;entryPerimeter=0;exitPerimeter=0;" parent="1" source="M1y-c-umGduQYgalox2f-97" target="M1y-c-umGduQYgalox2f-39" edge="1">
          <mxGeometry width="50" height="50" relative="1" as="geometry">
            <mxPoint x="2551" y="668.4200000000001" as="sourcePoint" />
            <mxPoint x="1530" y="670" as="targetPoint" />
          </mxGeometry>
        </mxCell>
        <mxCell id="M1y-c-umGduQYgalox2f-193" value="reg_wb" style="text;html=1;strokeColor=none;fillColor=none;align=center;verticalAlign=middle;whiteSpace=wrap;rounded=0;fontSize=20;" parent="1" vertex="1">
          <mxGeometry x="1165" y="600" width="60" height="30" as="geometry" />
        </mxCell>
        <mxCell id="M1y-c-umGduQYgalox2f-194" value="" style="endArrow=classic;html=1;rounded=0;fontSize=20;exitX=1.01;exitY=1.167;exitDx=0;exitDy=0;exitPerimeter=0;entryX=1;entryY=0.899;entryDx=0;entryDy=0;entryPerimeter=0;" parent="1" source="M1y-c-umGduQYgalox2f-195" target="M1y-c-umGduQYgalox2f-10" edge="1">
          <mxGeometry width="50" height="50" relative="1" as="geometry">
            <mxPoint x="1300" y="890" as="sourcePoint" />
            <mxPoint x="1350" y="840" as="targetPoint" />
          </mxGeometry>
        </mxCell>
        <mxCell id="M1y-c-umGduQYgalox2f-195" value="pc_4" style="text;html=1;align=center;verticalAlign=middle;resizable=0;points=[];autosize=1;strokeColor=none;fillColor=none;fontSize=20;" parent="1" vertex="1">
          <mxGeometry x="1330" y="860" width="60" height="30" as="geometry" />
        </mxCell>
        <mxCell id="EZNbji20lrhulTIrqfHr-3" value="" style="endArrow=classic;html=1;rounded=0;fontSize=20;" parent="1" target="EZNbji20lrhulTIrqfHr-4" edge="1">
          <mxGeometry width="50" height="50" relative="1" as="geometry">
            <mxPoint x="-190" y="260" as="sourcePoint" />
            <mxPoint x="-190" y="410" as="targetPoint" />
          </mxGeometry>
        </mxCell>
        <mxCell id="EZNbji20lrhulTIrqfHr-4" value="Adder" style="shape=trapezoid;perimeter=trapezoidPerimeter;whiteSpace=wrap;html=1;fixedSize=1;fontSize=20;align=center;rotation=90;" parent="1" vertex="1">
          <mxGeometry x="-250" y="420" width="120" height="60" as="geometry" />
        </mxCell>
        <mxCell id="EZNbji20lrhulTIrqfHr-5" value="" style="endArrow=classic;html=1;rounded=0;fontSize=20;entryX=0.75;entryY=1;entryDx=0;entryDy=0;" parent="1" target="EZNbji20lrhulTIrqfHr-10" edge="1">
          <mxGeometry width="50" height="50" relative="1" as="geometry">
            <mxPoint x="-160" y="450" as="sourcePoint" />
            <mxPoint x="-80" y="450" as="targetPoint" />
            <Array as="points">
              <mxPoint x="-60" y="450" />
              <mxPoint x="-60" y="809" />
            </Array>
          </mxGeometry>
        </mxCell>
        <mxCell id="EZNbji20lrhulTIrqfHr-6" value="" style="endArrow=classic;html=1;rounded=0;fontSize=20;" parent="1" edge="1">
          <mxGeometry width="50" height="50" relative="1" as="geometry">
            <mxPoint x="-270" y="450" as="sourcePoint" />
            <mxPoint x="-220" y="450" as="targetPoint" />
          </mxGeometry>
        </mxCell>
        <mxCell id="EZNbji20lrhulTIrqfHr-7" value="4" style="text;html=1;align=center;verticalAlign=middle;resizable=0;points=[];autosize=1;strokeColor=none;fillColor=none;fontSize=20;" parent="1" vertex="1">
          <mxGeometry x="-300" y="435" width="30" height="30" as="geometry" />
        </mxCell>
        <mxCell id="EZNbji20lrhulTIrqfHr-8" value="" style="endArrow=classic;html=1;rounded=0;fontSize=20;exitX=0.5;exitY=0;exitDx=0;exitDy=0;" parent="1" source="EZNbji20lrhulTIrqfHr-10" edge="1">
          <mxGeometry width="50" height="50" relative="1" as="geometry">
            <mxPoint x="-310" y="305" as="sourcePoint" />
            <mxPoint x="-260" y="255" as="targetPoint" />
            <Array as="points">
              <mxPoint x="-320" y="860" />
              <mxPoint x="-310" y="255" />
            </Array>
          </mxGeometry>
        </mxCell>
        <mxCell id="EZNbji20lrhulTIrqfHr-9" value="PC+4" style="text;html=1;align=center;verticalAlign=middle;resizable=0;points=[];autosize=1;strokeColor=none;fillColor=none;fontSize=20;" parent="1" vertex="1">
          <mxGeometry x="-160" y="420" width="70" height="30" as="geometry" />
        </mxCell>
        <mxCell id="EZNbji20lrhulTIrqfHr-10" value="mux" style="shape=trapezoid;perimeter=trapezoidPerimeter;whiteSpace=wrap;html=1;fixedSize=1;fontSize=20;align=center;rotation=-90;" parent="1" vertex="1">
          <mxGeometry x="-335" y="825" width="210" height="80" as="geometry" />
        </mxCell>
        <mxCell id="EZNbji20lrhulTIrqfHr-11" value="" style="endArrow=classic;html=1;rounded=0;fontSize=20;entryX=0.622;entryY=1.025;entryDx=0;entryDy=0;entryPerimeter=0;exitX=0.005;exitY=0.906;exitDx=0;exitDy=0;exitPerimeter=0;" parent="1" source="M1y-c-umGduQYgalox2f-10" target="EZNbji20lrhulTIrqfHr-10" edge="1">
          <mxGeometry width="50" height="50" relative="1" as="geometry">
            <mxPoint x="170" y="890" as="sourcePoint" />
            <mxPoint x="220" y="840" as="targetPoint" />
            <Array as="points">
              <mxPoint x="60" y="901" />
              <mxPoint x="60" y="830" />
            </Array>
          </mxGeometry>
        </mxCell>
        <mxCell id="EZNbji20lrhulTIrqfHr-12" value="" style="endArrow=classic;html=1;rounded=0;fontSize=20;entryX=0.418;entryY=1.007;entryDx=0;entryDy=0;exitX=-0.024;exitY=0.5;exitDx=0;exitDy=0;exitPerimeter=0;entryPerimeter=0;" parent="1" target="EZNbji20lrhulTIrqfHr-10" edge="1" source="EZNbji20lrhulTIrqfHr-13">
          <mxGeometry width="50" height="50" relative="1" as="geometry">
            <mxPoint x="-100" y="850" as="sourcePoint" />
            <mxPoint x="-100" y="880" as="targetPoint" />
          </mxGeometry>
        </mxCell>
        <mxCell id="EZNbji20lrhulTIrqfHr-13" value="reset" style="text;html=1;align=center;verticalAlign=middle;resizable=0;points=[];autosize=1;strokeColor=none;fillColor=none;fontSize=20;" parent="1" vertex="1">
          <mxGeometry x="-90" y="870" width="60" height="30" as="geometry" />
        </mxCell>
        <mxCell id="EZNbji20lrhulTIrqfHr-16" style="edgeStyle=orthogonalEdgeStyle;rounded=0;orthogonalLoop=1;jettySize=auto;html=1;exitX=0.5;exitY=0;exitDx=0;exitDy=0;entryX=0.007;entryY=0.423;entryDx=0;entryDy=0;entryPerimeter=0;fontSize=20;" parent="1" source="EZNbji20lrhulTIrqfHr-14" target="M1y-c-umGduQYgalox2f-39" edge="1">
          <mxGeometry relative="1" as="geometry" />
        </mxCell>
        <mxCell id="EZNbji20lrhulTIrqfHr-14" value="" style="shape=trapezoid;perimeter=trapezoidPerimeter;whiteSpace=wrap;html=1;fixedSize=1;fontSize=20;align=center;rotation=90;" parent="1" vertex="1">
          <mxGeometry x="1210" y="390" width="120" height="60" as="geometry" />
        </mxCell>
        <mxCell id="EZNbji20lrhulTIrqfHr-17" value="" style="endArrow=classic;html=1;rounded=0;fontSize=20;entryX=1;entryY=0.25;entryDx=0;entryDy=0;" parent="1" target="EZNbji20lrhulTIrqfHr-14" edge="1">
          <mxGeometry width="50" height="50" relative="1" as="geometry">
            <mxPoint x="1282" y="530" as="sourcePoint" />
            <mxPoint x="1310" y="510" as="targetPoint" />
          </mxGeometry>
        </mxCell>
        <mxCell id="EZNbji20lrhulTIrqfHr-18" value="bubble" style="text;html=1;align=center;verticalAlign=middle;resizable=0;points=[];autosize=1;strokeColor=none;fillColor=none;fontSize=20;" parent="1" vertex="1">
          <mxGeometry x="1241" y="530" width="80" height="30" as="geometry" />
        </mxCell>
        <mxCell id="EZNbji20lrhulTIrqfHr-19" value="" style="endArrow=classic;html=1;rounded=0;fontSize=20;" parent="1" edge="1">
          <mxGeometry width="50" height="50" relative="1" as="geometry">
            <mxPoint x="1160" y="420" as="sourcePoint" />
            <mxPoint x="1240" y="420" as="targetPoint" />
          </mxGeometry>
        </mxCell>
        <mxCell id="EZNbji20lrhulTIrqfHr-20" value="nop&lt;br&gt;alu_op=add&lt;br&gt;mem_read=0&lt;br&gt;mem_write=0&lt;br&gt;reg_write=0" style="text;html=1;align=center;verticalAlign=middle;resizable=0;points=[];autosize=1;strokeColor=none;fillColor=none;fontSize=20;" parent="1" vertex="1">
          <mxGeometry x="1110" y="295" width="140" height="130" as="geometry" />
        </mxCell>
        <mxCell id="EZNbji20lrhulTIrqfHr-29" value="" style="endArrow=classic;html=1;rounded=0;fontSize=20;exitX=0.993;exitY=0.167;exitDx=0;exitDy=0;exitPerimeter=0;" parent="1" source="M1y-c-umGduQYgalox2f-22" edge="1">
          <mxGeometry width="50" height="50" relative="1" as="geometry">
            <mxPoint x="1080" y="-30" as="sourcePoint" />
            <mxPoint x="1390" y="-35" as="targetPoint" />
          </mxGeometry>
        </mxCell>
        <mxCell id="EZNbji20lrhulTIrqfHr-30" value="" style="endArrow=classic;html=1;rounded=0;fontSize=20;exitX=1.02;exitY=0.225;exitDx=0;exitDy=0;exitPerimeter=0;" parent="1" source="M1y-c-umGduQYgalox2f-22" edge="1">
          <mxGeometry width="50" height="50" relative="1" as="geometry">
            <mxPoint x="940.1599999999999" y="-1.7899999999999636" as="sourcePoint" />
            <mxPoint x="1391" y="-1.9999999999997726" as="targetPoint" />
          </mxGeometry>
        </mxCell>
        <mxCell id="EZNbji20lrhulTIrqfHr-31" value="" style="endArrow=classic;html=1;rounded=0;fontSize=20;exitX=1.029;exitY=0.113;exitDx=0;exitDy=0;exitPerimeter=0;" parent="1" source="M1y-c-umGduQYgalox2f-22" edge="1">
          <mxGeometry width="50" height="50" relative="1" as="geometry">
            <mxPoint x="939.9999999999999" y="-69.78999999999996" as="sourcePoint" />
            <mxPoint x="1390.84" y="-69.99999999999977" as="targetPoint" />
          </mxGeometry>
        </mxCell>
        <mxCell id="EZNbji20lrhulTIrqfHr-32" value="" style="endArrow=classic;html=1;rounded=0;fontSize=20;exitX=0.99;exitY=0.047;exitDx=0;exitDy=0;exitPerimeter=0;" parent="1" source="M1y-c-umGduQYgalox2f-22" edge="1">
          <mxGeometry width="50" height="50" relative="1" as="geometry">
            <mxPoint x="939.16" y="-109.78999999999996" as="sourcePoint" />
            <mxPoint x="1390.0000000000002" y="-109.99999999999977" as="targetPoint" />
          </mxGeometry>
        </mxCell>
        <mxCell id="EZNbji20lrhulTIrqfHr-33" value="&lt;b&gt;byte_en&lt;/b&gt;" style="text;html=1;align=center;verticalAlign=middle;resizable=0;points=[];autosize=1;strokeColor=none;fillColor=none;fontSize=20;" parent="1" vertex="1">
          <mxGeometry x="1070" y="-140" width="90" height="30" as="geometry" />
        </mxCell>
        <mxCell id="EZNbji20lrhulTIrqfHr-34" value="&lt;b&gt;mem_read&lt;/b&gt;" style="text;html=1;align=center;verticalAlign=middle;resizable=0;points=[];autosize=1;strokeColor=none;fillColor=none;fontSize=20;" parent="1" vertex="1">
          <mxGeometry x="1065" y="-100" width="120" height="30" as="geometry" />
        </mxCell>
        <mxCell id="EZNbji20lrhulTIrqfHr-35" value="&lt;b&gt;mem_write&lt;/b&gt;" style="text;html=1;align=center;verticalAlign=middle;resizable=0;points=[];autosize=1;strokeColor=none;fillColor=none;fontSize=20;" parent="1" vertex="1">
          <mxGeometry x="1065" y="-60" width="120" height="30" as="geometry" />
        </mxCell>
        <mxCell id="EZNbji20lrhulTIrqfHr-36" value="&lt;b&gt;reg_write_sel&lt;/b&gt;" style="text;html=1;align=center;verticalAlign=middle;resizable=0;points=[];autosize=1;strokeColor=none;fillColor=none;fontSize=20;" parent="1" vertex="1">
          <mxGeometry x="1065" y="-30" width="140" height="30" as="geometry" />
        </mxCell>
        <mxCell id="EZNbji20lrhulTIrqfHr-37" value="" style="endArrow=classic;html=1;rounded=0;fontSize=20;exitX=0.993;exitY=0.167;exitDx=0;exitDy=0;exitPerimeter=0;" parent="1" edge="1">
          <mxGeometry width="50" height="50" relative="1" as="geometry">
            <mxPoint x="1530" y="-34.789999999999964" as="sourcePoint" />
            <mxPoint x="1980.8400000000001" y="-34.99999999999977" as="targetPoint" />
          </mxGeometry>
        </mxCell>
        <mxCell id="EZNbji20lrhulTIrqfHr-38" value="" style="endArrow=classic;html=1;rounded=0;fontSize=20;exitX=0.993;exitY=0.167;exitDx=0;exitDy=0;exitPerimeter=0;" parent="1" edge="1">
          <mxGeometry width="50" height="50" relative="1" as="geometry">
            <mxPoint x="1530.9999999999995" y="-1.790000000000191" as="sourcePoint" />
            <mxPoint x="1981.8400000000001" y="-1.9999999999997726" as="targetPoint" />
          </mxGeometry>
        </mxCell>
        <mxCell id="EZNbji20lrhulTIrqfHr-39" value="" style="endArrow=classic;html=1;rounded=0;fontSize=20;exitX=0.993;exitY=0.167;exitDx=0;exitDy=0;exitPerimeter=0;" parent="1" edge="1">
          <mxGeometry width="50" height="50" relative="1" as="geometry">
            <mxPoint x="1530.8400000000001" y="-69.78999999999996" as="sourcePoint" />
            <mxPoint x="1981.6800000000003" y="-69.99999999999977" as="targetPoint" />
          </mxGeometry>
        </mxCell>
        <mxCell id="EZNbji20lrhulTIrqfHr-40" value="" style="endArrow=classic;html=1;rounded=0;fontSize=20;exitX=0.993;exitY=0.167;exitDx=0;exitDy=0;exitPerimeter=0;" parent="1" edge="1">
          <mxGeometry width="50" height="50" relative="1" as="geometry">
            <mxPoint x="1530" y="-109.78999999999996" as="sourcePoint" />
            <mxPoint x="1980.8400000000001" y="-109.99999999999977" as="targetPoint" />
          </mxGeometry>
        </mxCell>
        <mxCell id="EZNbji20lrhulTIrqfHr-41" value="byte_en" style="text;html=1;align=center;verticalAlign=middle;resizable=0;points=[];autosize=1;strokeColor=none;fillColor=none;fontSize=20;" parent="1" vertex="1">
          <mxGeometry x="1660.8400000000001" y="-140" width="90" height="30" as="geometry" />
        </mxCell>
        <mxCell id="EZNbji20lrhulTIrqfHr-42" value="mem_read" style="text;html=1;align=center;verticalAlign=middle;resizable=0;points=[];autosize=1;strokeColor=none;fillColor=none;fontSize=20;" parent="1" vertex="1">
          <mxGeometry x="1660.8400000000001" y="-100" width="110" height="30" as="geometry" />
        </mxCell>
        <mxCell id="EZNbji20lrhulTIrqfHr-43" value="mem_write" style="text;html=1;align=center;verticalAlign=middle;resizable=0;points=[];autosize=1;strokeColor=none;fillColor=none;fontSize=20;" parent="1" vertex="1">
          <mxGeometry x="1660.8400000000001" y="-60" width="110" height="30" as="geometry" />
        </mxCell>
        <mxCell id="EZNbji20lrhulTIrqfHr-44" value="reg_write_sel" style="text;html=1;align=center;verticalAlign=middle;resizable=0;points=[];autosize=1;strokeColor=none;fillColor=none;fontSize=20;" parent="1" vertex="1">
          <mxGeometry x="1654" y="-30" width="130" height="30" as="geometry" />
        </mxCell>
        <mxCell id="EZNbji20lrhulTIrqfHr-45" value="" style="endArrow=classic;html=1;rounded=0;fontSize=20;exitX=0.993;exitY=0.167;exitDx=0;exitDy=0;exitPerimeter=0;" parent="1" edge="1">
          <mxGeometry width="50" height="50" relative="1" as="geometry">
            <mxPoint x="2098.16" y="-34.789999999999964" as="sourcePoint" />
            <mxPoint x="2549" y="-34.99999999999977" as="targetPoint" />
          </mxGeometry>
        </mxCell>
        <mxCell id="EZNbji20lrhulTIrqfHr-46" value="" style="endArrow=classic;html=1;rounded=0;fontSize=20;exitX=0.993;exitY=0.167;exitDx=0;exitDy=0;exitPerimeter=0;" parent="1" edge="1">
          <mxGeometry width="50" height="50" relative="1" as="geometry">
            <mxPoint x="2099.16" y="-1.790000000000191" as="sourcePoint" />
            <mxPoint x="2550" y="-1.9999999999997726" as="targetPoint" />
          </mxGeometry>
        </mxCell>
        <mxCell id="EZNbji20lrhulTIrqfHr-47" value="" style="endArrow=classic;html=1;rounded=0;fontSize=20;exitX=0.993;exitY=0.167;exitDx=0;exitDy=0;exitPerimeter=0;" parent="1" edge="1">
          <mxGeometry width="50" height="50" relative="1" as="geometry">
            <mxPoint x="2099.0000000000005" y="-69.78999999999996" as="sourcePoint" />
            <mxPoint x="2549.84" y="-69.99999999999977" as="targetPoint" />
          </mxGeometry>
        </mxCell>
        <mxCell id="EZNbji20lrhulTIrqfHr-48" value="" style="endArrow=classic;html=1;rounded=0;fontSize=20;exitX=0.993;exitY=0.167;exitDx=0;exitDy=0;exitPerimeter=0;" parent="1" edge="1">
          <mxGeometry width="50" height="50" relative="1" as="geometry">
            <mxPoint x="2098.16" y="-109.78999999999996" as="sourcePoint" />
            <mxPoint x="2549" y="-109.99999999999977" as="targetPoint" />
          </mxGeometry>
        </mxCell>
        <mxCell id="EZNbji20lrhulTIrqfHr-49" value="byte_en" style="text;html=1;align=center;verticalAlign=middle;resizable=0;points=[];autosize=1;strokeColor=none;fillColor=none;fontSize=20;" parent="1" vertex="1">
          <mxGeometry x="2229" y="-140" width="90" height="30" as="geometry" />
        </mxCell>
        <mxCell id="EZNbji20lrhulTIrqfHr-50" value="mem_read" style="text;html=1;align=center;verticalAlign=middle;resizable=0;points=[];autosize=1;strokeColor=none;fillColor=none;fontSize=20;" parent="1" vertex="1">
          <mxGeometry x="2229" y="-100" width="110" height="30" as="geometry" />
        </mxCell>
        <mxCell id="EZNbji20lrhulTIrqfHr-51" value="mem_write" style="text;html=1;align=center;verticalAlign=middle;resizable=0;points=[];autosize=1;strokeColor=none;fillColor=none;fontSize=20;" parent="1" vertex="1">
          <mxGeometry x="2229" y="-60" width="110" height="30" as="geometry" />
        </mxCell>
        <mxCell id="EZNbji20lrhulTIrqfHr-52" value="reg_write_sel" style="text;html=1;align=center;verticalAlign=middle;resizable=0;points=[];autosize=1;strokeColor=none;fillColor=none;fontSize=20;" parent="1" vertex="1">
          <mxGeometry x="2222.16" y="-30" width="130" height="30" as="geometry" />
        </mxCell>
        <mxCell id="EZNbji20lrhulTIrqfHr-53" value="" style="endArrow=classic;html=1;rounded=0;fontSize=20;exitX=0.993;exitY=0.167;exitDx=0;exitDy=0;exitPerimeter=0;" parent="1" edge="1">
          <mxGeometry width="50" height="50" relative="1" as="geometry">
            <mxPoint x="2671.02" y="-34.789999999999964" as="sourcePoint" />
            <mxPoint x="3121.86" y="-34.99999999999977" as="targetPoint" />
          </mxGeometry>
        </mxCell>
        <mxCell id="EZNbji20lrhulTIrqfHr-54" value="" style="endArrow=classic;html=1;rounded=0;fontSize=20;exitX=0.993;exitY=0.167;exitDx=0;exitDy=0;exitPerimeter=0;" parent="1" edge="1">
          <mxGeometry width="50" height="50" relative="1" as="geometry">
            <mxPoint x="2672.02" y="-1.790000000000191" as="sourcePoint" />
            <mxPoint x="3122.86" y="-1.9999999999997726" as="targetPoint" />
          </mxGeometry>
        </mxCell>
        <mxCell id="EZNbji20lrhulTIrqfHr-55" value="" style="endArrow=classic;html=1;rounded=0;fontSize=20;exitX=0.993;exitY=0.167;exitDx=0;exitDy=0;exitPerimeter=0;" parent="1" edge="1">
          <mxGeometry width="50" height="50" relative="1" as="geometry">
            <mxPoint x="2671.8600000000006" y="-69.78999999999996" as="sourcePoint" />
            <mxPoint x="3122.7000000000003" y="-69.99999999999977" as="targetPoint" />
          </mxGeometry>
        </mxCell>
        <mxCell id="EZNbji20lrhulTIrqfHr-56" value="" style="endArrow=classic;html=1;rounded=0;fontSize=20;exitX=0.993;exitY=0.167;exitDx=0;exitDy=0;exitPerimeter=0;" parent="1" edge="1">
          <mxGeometry width="50" height="50" relative="1" as="geometry">
            <mxPoint x="2671.02" y="-109.78999999999996" as="sourcePoint" />
            <mxPoint x="3121.86" y="-109.99999999999977" as="targetPoint" />
          </mxGeometry>
        </mxCell>
        <mxCell id="EZNbji20lrhulTIrqfHr-57" value="byte_en" style="text;html=1;align=center;verticalAlign=middle;resizable=0;points=[];autosize=1;strokeColor=none;fillColor=none;fontSize=20;fontStyle=1" parent="1" vertex="1">
          <mxGeometry x="2801.86" y="-140" width="90" height="30" as="geometry" />
        </mxCell>
        <mxCell id="EZNbji20lrhulTIrqfHr-58" value="mem_read" style="text;html=1;align=center;verticalAlign=middle;resizable=0;points=[];autosize=1;strokeColor=none;fillColor=none;fontSize=20;fontStyle=1" parent="1" vertex="1">
          <mxGeometry x="2796.86" y="-100" width="120" height="30" as="geometry" />
        </mxCell>
        <mxCell id="EZNbji20lrhulTIrqfHr-59" value="mem_write" style="text;html=1;align=center;verticalAlign=middle;resizable=0;points=[];autosize=1;strokeColor=none;fillColor=none;fontSize=20;fontStyle=1" parent="1" vertex="1">
          <mxGeometry x="2796.86" y="-60" width="120" height="30" as="geometry" />
        </mxCell>
        <mxCell id="EZNbji20lrhulTIrqfHr-60" value="reg_write_sel" style="text;html=1;align=center;verticalAlign=middle;resizable=0;points=[];autosize=1;strokeColor=none;fillColor=none;fontSize=20;" parent="1" vertex="1">
          <mxGeometry x="2795.02" y="-30" width="130" height="30" as="geometry" />
        </mxCell>
        <mxCell id="EZNbji20lrhulTIrqfHr-61" value="" style="endArrow=classic;html=1;rounded=0;fontSize=20;exitX=0.993;exitY=0.167;exitDx=0;exitDy=0;exitPerimeter=0;" parent="1" edge="1">
          <mxGeometry width="50" height="50" relative="1" as="geometry">
            <mxPoint x="3240.1600000000003" y="-1.790000000000191" as="sourcePoint" />
            <mxPoint x="3691.0000000000005" y="-1.9999999999997726" as="targetPoint" />
          </mxGeometry>
        </mxCell>
        <mxCell id="EZNbji20lrhulTIrqfHr-62" value="reg_write_sel" style="text;html=1;align=center;verticalAlign=middle;resizable=0;points=[];autosize=1;strokeColor=none;fillColor=none;fontSize=20;" parent="1" vertex="1">
          <mxGeometry x="3363.16" y="-30" width="130" height="30" as="geometry" />
        </mxCell>
        <mxCell id="EZNbji20lrhulTIrqfHr-63" value="" style="endArrow=classic;html=1;rounded=0;fontSize=20;exitX=1.008;exitY=0.162;exitDx=0;exitDy=0;exitPerimeter=0;entryX=0.36;entryY=0.989;entryDx=0;entryDy=0;entryPerimeter=0;" parent="1" source="M1y-c-umGduQYgalox2f-152" target="M1y-c-umGduQYgalox2f-167" edge="1">
          <mxGeometry width="50" height="50" relative="1" as="geometry">
            <mxPoint x="3820" y="0.209999999999809" as="sourcePoint" />
            <mxPoint x="4270.840000000001" y="2.2737367544323206e-13" as="targetPoint" />
            <Array as="points">
              <mxPoint x="4250" />
              <mxPoint x="4250" y="638" />
            </Array>
          </mxGeometry>
        </mxCell>
        <mxCell id="EZNbji20lrhulTIrqfHr-64" value="reg_write_sel" style="text;html=1;align=center;verticalAlign=middle;resizable=0;points=[];autosize=1;strokeColor=none;fillColor=none;fontSize=20;" parent="1" vertex="1">
          <mxGeometry x="3850" y="-30" width="130" height="30" as="geometry" />
        </mxCell>
        <mxCell id="EZNbji20lrhulTIrqfHr-67" value="" style="endArrow=classic;html=1;rounded=0;fontSize=20;entryX=0.75;entryY=1;entryDx=0;entryDy=0;" parent="1" target="EZNbji20lrhulTIrqfHr-68" edge="1">
          <mxGeometry width="50" height="50" relative="1" as="geometry">
            <mxPoint x="460" y="260" as="sourcePoint" />
            <mxPoint x="310" y="30" as="targetPoint" />
            <Array as="points">
              <mxPoint x="460" y="28" />
            </Array>
          </mxGeometry>
        </mxCell>
        <mxCell id="EZNbji20lrhulTIrqfHr-68" value="mux" style="shape=trapezoid;perimeter=trapezoidPerimeter;whiteSpace=wrap;html=1;fixedSize=1;fontSize=20;align=center;rotation=-90;" parent="1" vertex="1">
          <mxGeometry x="60" y="35" width="160" height="60" as="geometry" />
        </mxCell>
        <mxCell id="EZNbji20lrhulTIrqfHr-69" value="" style="endArrow=classic;html=1;rounded=0;fontSize=20;exitX=0.997;exitY=1.148;exitDx=0;exitDy=0;exitPerimeter=0;" parent="1" source="EZNbji20lrhulTIrqfHr-71" edge="1">
          <mxGeometry width="50" height="50" relative="1" as="geometry">
            <mxPoint x="370" y="66.29" as="sourcePoint" />
            <mxPoint x="170" y="66.29" as="targetPoint" />
          </mxGeometry>
        </mxCell>
        <mxCell id="EZNbji20lrhulTIrqfHr-70" value="imml:sig(inst[31:20])" style="text;html=1;align=center;verticalAlign=middle;resizable=0;points=[];autosize=1;strokeColor=none;fillColor=none;fontSize=20;" parent="1" vertex="1">
          <mxGeometry x="180" y="-10" width="190" height="30" as="geometry" />
        </mxCell>
        <mxCell id="EZNbji20lrhulTIrqfHr-71" value="immS:sig(inst[31:25],inst[11:7])" style="text;html=1;align=center;verticalAlign=middle;resizable=0;points=[];autosize=1;strokeColor=none;fillColor=none;fontSize=20;" parent="1" vertex="1">
          <mxGeometry x="170" y="32" width="290" height="30" as="geometry" />
        </mxCell>
        <mxCell id="EZNbji20lrhulTIrqfHr-72" value="" style="endArrow=classic;html=1;rounded=0;fontSize=20;" parent="1" edge="1">
          <mxGeometry width="50" height="50" relative="1" as="geometry">
            <mxPoint x="460" y="96" as="sourcePoint" />
            <mxPoint x="170" y="96" as="targetPoint" />
          </mxGeometry>
        </mxCell>
        <mxCell id="EZNbji20lrhulTIrqfHr-73" value="shamt:sig(inst[24:20])" style="text;html=1;align=center;verticalAlign=middle;resizable=0;points=[];autosize=1;strokeColor=none;fillColor=none;fontSize=20;" parent="1" vertex="1">
          <mxGeometry x="180" y="70" width="210" height="30" as="geometry" />
        </mxCell>
        <mxCell id="EZNbji20lrhulTIrqfHr-74" value="" style="endArrow=classic;html=1;rounded=0;fontSize=20;exitX=0.5;exitY=0;exitDx=0;exitDy=0;entryX=-0.019;entryY=0.087;entryDx=0;entryDy=0;entryPerimeter=0;" parent="1" source="EZNbji20lrhulTIrqfHr-68" target="M1y-c-umGduQYgalox2f-22" edge="1">
          <mxGeometry width="50" height="50" relative="1" as="geometry">
            <mxPoint x="40" y="50" as="sourcePoint" />
            <mxPoint x="90" as="targetPoint" />
            <Array as="points">
              <mxPoint x="40" y="65" />
              <mxPoint x="40" y="-85" />
            </Array>
          </mxGeometry>
        </mxCell>
        <mxCell id="EZNbji20lrhulTIrqfHr-75" value="&lt;b&gt;imm&lt;/b&gt;" style="text;html=1;align=center;verticalAlign=middle;resizable=0;points=[];autosize=1;strokeColor=none;fillColor=none;fontSize=20;" parent="1" vertex="1">
          <mxGeometry x="35" y="20" width="60" height="30" as="geometry" />
        </mxCell>
        <mxCell id="EZNbji20lrhulTIrqfHr-76" value="" style="endArrow=classic;html=1;rounded=0;fontSize=20;entryX=0.08;entryY=1.033;entryDx=0;entryDy=0;entryPerimeter=0;" parent="1" target="EZNbji20lrhulTIrqfHr-68" edge="1">
          <mxGeometry width="50" height="50" relative="1" as="geometry">
            <mxPoint x="460" y="132" as="sourcePoint" />
            <mxPoint x="510" y="110" as="targetPoint" />
          </mxGeometry>
        </mxCell>
        <mxCell id="EZNbji20lrhulTIrqfHr-77" value="alu_sel" style="text;html=1;align=center;verticalAlign=middle;resizable=0;points=[];autosize=1;strokeColor=none;fillColor=none;fontSize=20;" parent="1" vertex="1">
          <mxGeometry x="185" y="100" width="80" height="30" as="geometry" />
        </mxCell>
        <mxCell id="EZNbji20lrhulTIrqfHr-79" value="&lt;font style=&quot;font-size: 30px&quot;&gt;if_id.v&lt;/font&gt;" style="text;html=1;align=center;verticalAlign=middle;resizable=0;points=[];autosize=1;strokeColor=none;fillColor=none;fontSize=20;" parent="1" vertex="1">
          <mxGeometry x="175" y="-230" width="90" height="30" as="geometry" />
        </mxCell>
        <mxCell id="EZNbji20lrhulTIrqfHr-80" value="&lt;font style=&quot;font-size: 30px&quot;&gt;id_exe.v&lt;/font&gt;" style="text;html=1;align=center;verticalAlign=middle;resizable=0;points=[];autosize=1;strokeColor=none;fillColor=none;fontSize=20;" parent="1" vertex="1">
          <mxGeometry x="1390" y="-250" width="130" height="30" as="geometry" />
        </mxCell>
        <mxCell id="VgIqIGBlsGLsr30LPfw4-3" value="data forward" style="text;html=1;align=center;verticalAlign=middle;resizable=0;points=[];autosize=1;strokeColor=none;fillColor=none;fontSize=20;" parent="1" vertex="1">
          <mxGeometry x="2380" y="465" width="130" height="30" as="geometry" />
        </mxCell>
        <mxCell id="n7bHedpDZFb0N75ltOcH-5" value="" style="shape=flexArrow;endArrow=classic;html=1;rounded=0;exitX=0.5;exitY=1;exitDx=0;exitDy=0;" parent="1" source="M1y-c-umGduQYgalox2f-152" edge="1">
          <mxGeometry width="50" height="50" relative="1" as="geometry">
            <mxPoint x="2010" y="1140" as="sourcePoint" />
            <mxPoint x="1170" y="1120" as="targetPoint" />
            <Array as="points">
              <mxPoint x="3751" y="1100" />
            </Array>
          </mxGeometry>
        </mxCell>
        <mxCell id="n7bHedpDZFb0N75ltOcH-6" value="&lt;font style=&quot;font-size: 20px&quot;&gt;forward&lt;/font&gt;" style="rounded=0;whiteSpace=wrap;html=1;" parent="1" vertex="1">
          <mxGeometry x="1045" y="1090" width="120" height="170" as="geometry" />
        </mxCell>
        <mxCell id="n7bHedpDZFb0N75ltOcH-9" value="&lt;b&gt;reg1_read&lt;br&gt;&lt;/b&gt;&lt;b&gt;reg2_read&lt;br&gt;&lt;/b&gt;&lt;b&gt;reg1_addr[4:0]&lt;br&gt;&lt;/b&gt;&lt;b&gt;reg2_addr[4:0]&lt;/b&gt;&lt;b&gt;&lt;br&gt;&lt;/b&gt;" style="text;html=1;align=center;verticalAlign=middle;resizable=0;points=[];autosize=1;strokeColor=none;fillColor=none;fontSize=20;" parent="1" vertex="1">
          <mxGeometry x="640" y="335" width="150" height="100" as="geometry" />
        </mxCell>
        <mxCell id="n7bHedpDZFb0N75ltOcH-10" value="" style="shape=flexArrow;endArrow=classic;html=1;rounded=0;exitX=1.017;exitY=0.923;exitDx=0;exitDy=0;exitPerimeter=0;entryX=0.75;entryY=0;entryDx=0;entryDy=0;" parent="1" source="M1y-c-umGduQYgalox2f-22" target="M1y-c-umGduQYgalox2f-24" edge="1">
          <mxGeometry width="50" height="50" relative="1" as="geometry">
            <mxPoint x="660" y="490" as="sourcePoint" />
            <mxPoint x="710" y="440" as="targetPoint" />
            <Array as="points">
              <mxPoint x="780" y="441" />
            </Array>
          </mxGeometry>
        </mxCell>
        <mxCell id="n7bHedpDZFb0N75ltOcH-11" value="" style="shape=flexArrow;endArrow=classic;html=1;rounded=0;entryX=0.5;entryY=1;entryDx=0;entryDy=0;exitX=0;exitY=0.75;exitDx=0;exitDy=0;" parent="1" source="M1y-c-umGduQYgalox2f-24" target="M1y-c-umGduQYgalox2f-22" edge="1">
          <mxGeometry width="50" height="50" relative="1" as="geometry">
            <mxPoint x="610" y="670" as="sourcePoint" />
            <mxPoint x="660" y="620" as="targetPoint" />
            <Array as="points">
              <mxPoint x="580" y="805" />
            </Array>
          </mxGeometry>
        </mxCell>
        <mxCell id="n7bHedpDZFb0N75ltOcH-12" value="&lt;span style=&quot;font-family: &amp;#34;helvetica&amp;#34; ; font-size: 20px&quot;&gt;mem_wdata[31:0]&lt;/span&gt;&lt;br style=&quot;font-family: &amp;#34;helvetica&amp;#34; ; font-size: 20px&quot;&gt;&lt;span style=&quot;font-family: &amp;#34;helvetica&amp;#34; ; font-size: 20px&quot;&gt;mem_waddr[4:0]&lt;br&gt;&lt;/span&gt;&lt;span style=&quot;font-family: &amp;#34;helvetica&amp;#34; ; font-size: 20px&quot;&gt;mem_wreg&lt;/span&gt;" style="text;html=1;align=center;verticalAlign=middle;resizable=0;points=[];autosize=1;strokeColor=none;fillColor=none;" parent="1" vertex="1">
          <mxGeometry x="1180" y="1050" width="170" height="50" as="geometry" />
        </mxCell>
        <mxCell id="n7bHedpDZFb0N75ltOcH-13" value="" style="endArrow=classic;html=1;rounded=0;exitX=-0.013;exitY=0.624;exitDx=0;exitDy=0;exitPerimeter=0;entryX=1;entryY=0.5;entryDx=0;entryDy=0;" parent="1" source="M1y-c-umGduQYgalox2f-39" target="M1y-c-umGduQYgalox2f-24" edge="1">
          <mxGeometry width="50" height="50" relative="1" as="geometry">
            <mxPoint x="1260" y="660" as="sourcePoint" />
            <mxPoint x="1310" y="610" as="targetPoint" />
            <Array as="points">
              <mxPoint x="1130" y="600" />
              <mxPoint x="1130" y="790" />
            </Array>
          </mxGeometry>
        </mxCell>
        <mxCell id="n7bHedpDZFb0N75ltOcH-14" value="" style="shape=flexArrow;endArrow=classic;html=1;rounded=0;exitX=0.75;exitY=1;exitDx=0;exitDy=0;" parent="1" source="M1y-c-umGduQYgalox2f-24" edge="1">
          <mxGeometry width="50" height="50" relative="1" as="geometry">
            <mxPoint x="790" y="440" as="sourcePoint" />
            <mxPoint x="1040" y="1242.3529411764705" as="targetPoint" />
            <Array as="points">
              <mxPoint x="780" y="1242" />
            </Array>
          </mxGeometry>
        </mxCell>
        <mxCell id="n7bHedpDZFb0N75ltOcH-15" value="" style="shape=flexArrow;endArrow=classic;html=1;rounded=0;exitX=0.154;exitY=-0.008;exitDx=0;exitDy=0;exitPerimeter=0;entryX=-0.029;entryY=0.221;entryDx=0;entryDy=0;entryPerimeter=0;" parent="1" source="n7bHedpDZFb0N75ltOcH-6" target="M1y-c-umGduQYgalox2f-39" edge="1">
          <mxGeometry width="50" height="50" relative="1" as="geometry">
            <mxPoint x="1060" y="1070" as="sourcePoint" />
            <mxPoint x="1110" y="1020" as="targetPoint" />
            <Array as="points">
              <mxPoint x="1050" y="96" />
            </Array>
          </mxGeometry>
        </mxCell>
        <mxCell id="n7bHedpDZFb0N75ltOcH-16" value="&lt;b&gt;reg1_after_forward[31:0]&lt;br&gt;&lt;/b&gt;&lt;b&gt;reg2_after_forward[31:0]&lt;br&gt;&lt;/b&gt;" style="text;html=1;align=center;verticalAlign=middle;resizable=0;points=[];autosize=1;strokeColor=none;fillColor=none;fontSize=20;" parent="1" vertex="1">
          <mxGeometry x="1075" y="100" width="250" height="50" as="geometry" />
        </mxCell>
        <mxCell id="n7bHedpDZFb0N75ltOcH-17" value="&lt;span style=&quot;font-family: &amp;#34;helvetica&amp;#34; ; font-size: 20px&quot;&gt;exe_wdata[31:0]&lt;/span&gt;&lt;br style=&quot;font-family: &amp;#34;helvetica&amp;#34; ; font-size: 20px&quot;&gt;&lt;span style=&quot;font-family: &amp;#34;helvetica&amp;#34; ; font-size: 20px&quot;&gt;exe_waddr[4:0]&lt;br&gt;&lt;/span&gt;&lt;span style=&quot;font-family: &amp;#34;helvetica&amp;#34; ; font-size: 20px&quot;&gt;exe_wreg&lt;/span&gt;" style="text;html=1;align=center;verticalAlign=middle;resizable=0;points=[];autosize=1;strokeColor=none;fillColor=none;" parent="1" vertex="1">
          <mxGeometry x="1190" y="1240" width="160" height="50" as="geometry" />
        </mxCell>
        <mxCell id="n7bHedpDZFb0N75ltOcH-18" value="" style="shape=flexArrow;endArrow=classic;html=1;rounded=0;entryX=1;entryY=0.75;entryDx=0;entryDy=0;exitX=0.5;exitY=1;exitDx=0;exitDy=0;" parent="1" source="M1y-c-umGduQYgalox2f-97" target="n7bHedpDZFb0N75ltOcH-6" edge="1">
          <mxGeometry width="50" height="50" relative="1" as="geometry">
            <mxPoint x="2610" y="1030" as="sourcePoint" />
            <mxPoint x="2660" y="980" as="targetPoint" />
            <Array as="points">
              <mxPoint x="2610" y="1210" />
            </Array>
          </mxGeometry>
        </mxCell>
        <mxCell id="uNr3eEAawYfnxkbsEO-X-1" value="&lt;font style=&quot;font-size: 20px&quot;&gt;Branch Controller&lt;br&gt;&amp;amp;&amp;amp;&lt;br&gt;LW Controller&lt;/font&gt;" style="rounded=0;whiteSpace=wrap;html=1;" vertex="1" parent="1">
          <mxGeometry x="290" y="1089" width="230" height="151" as="geometry" />
        </mxCell>
        <mxCell id="uNr3eEAawYfnxkbsEO-X-2" value="" style="shape=flexArrow;endArrow=classic;html=1;rounded=0;fontSize=20;entryX=0.5;entryY=0;entryDx=0;entryDy=0;" edge="1" parent="1" target="uNr3eEAawYfnxkbsEO-X-1">
          <mxGeometry width="50" height="50" relative="1" as="geometry">
            <mxPoint x="1050" y="920" as="sourcePoint" />
            <mxPoint x="600" y="920" as="targetPoint" />
            <Array as="points">
              <mxPoint x="400" y="920" />
            </Array>
          </mxGeometry>
        </mxCell>
        <mxCell id="uNr3eEAawYfnxkbsEO-X-3" value="" style="endArrow=classic;html=1;rounded=0;fontSize=20;entryX=0.609;entryY=0.007;entryDx=0;entryDy=0;entryPerimeter=0;" edge="1" parent="1" target="uNr3eEAawYfnxkbsEO-X-1">
          <mxGeometry width="50" height="50" relative="1" as="geometry">
            <mxPoint x="1000" y="260" as="sourcePoint" />
            <mxPoint x="1010" y="390" as="targetPoint" />
            <Array as="points">
              <mxPoint x="1010" y="1000" />
              <mxPoint x="430" y="990" />
            </Array>
          </mxGeometry>
        </mxCell>
        <mxCell id="uNr3eEAawYfnxkbsEO-X-4" value="" style="endArrow=classic;html=1;rounded=0;fontSize=20;entryX=0.75;entryY=0;entryDx=0;entryDy=0;" edge="1" parent="1" target="uNr3eEAawYfnxkbsEO-X-1">
          <mxGeometry width="50" height="50" relative="1" as="geometry">
            <mxPoint x="960" y="299.99999999999955" as="sourcePoint" />
            <mxPoint x="390.07000000000016" y="1130.0570000000002" as="targetPoint" />
            <Array as="points">
              <mxPoint x="970" y="1040" />
              <mxPoint x="463" y="1040" />
            </Array>
          </mxGeometry>
        </mxCell>
        <mxCell id="uNr3eEAawYfnxkbsEO-X-5" value="" style="shape=flexArrow;endArrow=classic;html=1;rounded=0;fontSize=20;exitX=0;exitY=0.5;exitDx=0;exitDy=0;entryX=0;entryY=0.25;entryDx=0;entryDy=0;" edge="1" parent="1" source="uNr3eEAawYfnxkbsEO-X-1" target="EZNbji20lrhulTIrqfHr-10">
          <mxGeometry width="50" height="50" relative="1" as="geometry">
            <mxPoint x="50" y="1170" as="sourcePoint" />
            <mxPoint x="-240" y="1164" as="targetPoint" />
            <Array as="points">
              <mxPoint x="-247" y="1160" />
            </Array>
          </mxGeometry>
        </mxCell>
        <mxCell id="uNr3eEAawYfnxkbsEO-X-6" value="lw_use_npc&lt;br&gt;use_npc" style="text;html=1;align=center;verticalAlign=middle;resizable=0;points=[];autosize=1;strokeColor=none;fillColor=none;fontSize=20;" vertex="1" parent="1">
          <mxGeometry x="-160" y="1100" width="120" height="50" as="geometry" />
        </mxCell>
        <mxCell id="uNr3eEAawYfnxkbsEO-X-7" value="" style="shape=flexArrow;endArrow=classic;html=1;rounded=0;fontSize=20;entryX=0.25;entryY=1;entryDx=0;entryDy=0;exitX=0;exitY=0.25;exitDx=0;exitDy=0;" edge="1" parent="1" source="uNr3eEAawYfnxkbsEO-X-1" target="EZNbji20lrhulTIrqfHr-10">
          <mxGeometry width="50" height="50" relative="1" as="geometry">
            <mxPoint x="-130" y="1000" as="sourcePoint" />
            <mxPoint x="-80" y="950" as="targetPoint" />
            <Array as="points">
              <mxPoint x="110" y="1120" />
              <mxPoint x="110" y="930" />
            </Array>
          </mxGeometry>
        </mxCell>
        <mxCell id="uNr3eEAawYfnxkbsEO-X-8" value="lw_npc&lt;br&gt;npc" style="text;html=1;align=center;verticalAlign=middle;resizable=0;points=[];autosize=1;strokeColor=none;fillColor=none;fontSize=20;" vertex="1" parent="1">
          <mxGeometry x="-90" y="945" width="80" height="50" as="geometry" />
        </mxCell>
        <mxCell id="uNr3eEAawYfnxkbsEO-X-10" value="" style="endArrow=classic;html=1;rounded=0;fontSize=20;entryX=0.5;entryY=1;entryDx=0;entryDy=0;" edge="1" parent="1" target="M1y-c-umGduQYgalox2f-10">
          <mxGeometry width="50" height="50" relative="1" as="geometry">
            <mxPoint x="225" y="1030" as="sourcePoint" />
            <mxPoint x="280" y="990" as="targetPoint" />
          </mxGeometry>
        </mxCell>
        <mxCell id="uNr3eEAawYfnxkbsEO-X-11" value="stall" style="text;html=1;align=center;verticalAlign=middle;resizable=0;points=[];autosize=1;strokeColor=none;fillColor=none;fontSize=20;" vertex="1" parent="1">
          <mxGeometry x="200" y="1030" width="50" height="30" as="geometry" />
        </mxCell>
        <mxCell id="uNr3eEAawYfnxkbsEO-X-12" value="" style="endArrow=classic;html=1;rounded=0;fontSize=20;entryX=0.5;entryY=1;entryDx=0;entryDy=0;" edge="1" parent="1">
          <mxGeometry width="50" height="50" relative="1" as="geometry">
            <mxPoint x="1475" y="1120" as="sourcePoint" />
            <mxPoint x="1475" y="1070" as="targetPoint" />
          </mxGeometry>
        </mxCell>
        <mxCell id="uNr3eEAawYfnxkbsEO-X-13" value="stall" style="text;html=1;align=center;verticalAlign=middle;resizable=0;points=[];autosize=1;strokeColor=none;fillColor=none;fontSize=20;" vertex="1" parent="1">
          <mxGeometry x="1450" y="1120" width="50" height="30" as="geometry" />
        </mxCell>
        <mxCell id="uNr3eEAawYfnxkbsEO-X-14" value="" style="endArrow=classic;html=1;rounded=0;fontSize=20;entryX=0.5;entryY=1;entryDx=0;entryDy=0;" edge="1" parent="1">
          <mxGeometry width="50" height="50" relative="1" as="geometry">
            <mxPoint x="2655" y="1030" as="sourcePoint" />
            <mxPoint x="2655" y="980" as="targetPoint" />
          </mxGeometry>
        </mxCell>
        <mxCell id="uNr3eEAawYfnxkbsEO-X-15" value="stall" style="text;html=1;align=center;verticalAlign=middle;resizable=0;points=[];autosize=1;strokeColor=none;fillColor=none;fontSize=20;" vertex="1" parent="1">
          <mxGeometry x="2630" y="1030" width="50" height="30" as="geometry" />
        </mxCell>
      </root>
    </mxGraphModel>
  </diagram>
</mxfile>
